<svg xmlns="http://www.w3.org/2000/svg" xmlns:xlink="http://www.w3.org/1999/xlink" width="171.428" height="60" viewBox="0 0 171.428 60"><defs><style>.a{fill:none;}.b{clip-path:url(#a);}.c{fill:#f0c20c;}.d{fill:#8fbb23;}.e{fill:#f05203;}.f{fill:#aaa7a6;}.g{fill:#fff;}</style><clipPath id="a"><rect class="a" width="171.429" height="60"/></clipPath></defs><g class="b"><g transform="translate(0)"><path class="c" d="M178.1,420.681c-.1-.247-.357-.207-.546-.269a4.726,4.726,0,0,1-3.254-5.89,4.838,4.838,0,0,1,6-3.2,9.581,9.581,0,0,0,1.255.283,2.45,2.45,0,0,0,2.561-1.272,2.24,2.24,0,0,0-.3-2.655,2.327,2.327,0,0,0-2.7-.649,5.244,5.244,0,0,1-2.8.538,3.516,3.516,0,0,1-2.895-3.181,3.471,3.471,0,0,1,2.479-3.5c.179-.055.363-.1.546-.139,2.254-.515,3.128-1.608,3.046-3.874a17.485,17.485,0,0,1-.2-4.01,6.489,6.489,0,0,1,6.838-5.259,6.381,6.381,0,0,1,5.978,6.249c0,.158-.005.317-.008.475a2.1,2.1,0,0,0,1.875,2.443,4.762,4.762,0,1,1-5.568,5.959c-.574-1.93-1-2.256-3.066-2.3a7.057,7.057,0,0,0-3,.47,2.9,2.9,0,0,0-1.653,3.6,2.311,2.311,0,0,0,2.853,1.315,7.718,7.718,0,0,0,1.12-.437,3.948,3.948,0,0,1,4.584.847,3.758,3.758,0,0,1,.56,4.413,3.931,3.931,0,0,1-4.237,1.921c-.158-.029-.313-.079-.471-.107a2.581,2.581,0,0,0-3.337,2.712,6.415,6.415,0,0,1-.294,2.34,4.8,4.8,0,0,1-3.183,2.917c-.242.076-.552-.008-.725.258Z" transform="translate(-146.466 -360.681)"/><path class="d" d="M123.014,332.539a4.767,4.767,0,0,1-3.843,4.659,5.062,5.062,0,0,1-5.681-3.032,20.766,20.766,0,0,0-.969-2.258,5,5,0,0,0-5.711-2.72,21.019,21.019,0,0,0-2.187.536,5.291,5.291,0,0,1-6.663-3.451,5.141,5.141,0,0,1,3.409-6.4,5.29,5.29,0,0,1,6.683,3.405,16.086,16.086,0,0,0,.825,2.059,5.063,5.063,0,0,0,5.975,2.924c.686-.122,1.358-.323,2.038-.477A5,5,0,0,1,123.014,332.539Zm-14.682-11.78a5.113,5.113,0,0,0,2.071-.124c2.234-.4,3.558.4,4.2,2.54.084.278.146.563.244.836a3.281,3.281,0,0,0,3.779,2.109,3.232,3.232,0,0,0,1.265-5.813c-1.206-.943-1.134-2.06.166-2.868.227-.141.467-.263.686-.415a4.671,4.671,0,0,0,1.261-6.461,4.9,4.9,0,0,0-6.471-1.506,4.7,4.7,0,0,0-.074,8.148,2.927,2.927,0,0,1,1.255,1.073c.485.957.027,1.689-1.039,1.649a2.841,2.841,0,0,1-2.585-1.6,9.327,9.327,0,0,1-.628-1.872,3.536,3.536,0,0,0-3.952-2.523,3.464,3.464,0,0,0-.181,6.828Z" transform="translate(-96.536 -308.408)"/><path class="e" d="M194.024,329.944a5.288,5.288,0,0,1-4.455-2.194,11.942,11.942,0,0,0-1.894-2.149,4.856,4.856,0,0,0-5.477-.763c-.559.252-1.075.594-1.613.892a3.345,3.345,0,0,1-4.277-.814,3.057,3.057,0,0,1,.291-4.241c1.431-1.241,1.26-2.539-.338-3.6a4.6,4.6,0,0,1-1.879-5.563,4.851,4.851,0,0,1,9.311.9c.02.1.026.21.046.314.293,1.483,1.2,1.984,2.637,1.46a3.541,3.541,0,0,1,4.793,2.035,3.44,3.44,0,0,1-2.062,4.351,3.548,3.548,0,0,1-4.512-1.84,1.494,1.494,0,0,1-.11-.3c-.481-2.344-2.587-1.925-3.745-.655a1.6,1.6,0,0,0-.005,2.35,19.31,19.31,0,0,0,1.734,1.653,4.9,4.9,0,0,0,5.769.6,16.175,16.175,0,0,0,2.421-1.7,5.291,5.291,0,0,1,5.9-.368,5.139,5.139,0,0,1-1.456,9.475A9.377,9.377,0,0,1,194.024,329.944Zm-14.031,7.135a4.738,4.738,0,1,0-4.816-4.723A4.785,4.785,0,0,0,179.993,337.079Zm20.588-1.447a3.384,3.384,0,0,0-6.767.037,3.384,3.384,0,0,0,6.767-.037Z" transform="translate(-146.459 -308.389)"/><path class="f" d="M114.925,414.866c-.176-.243-.473-.224-.717-.306a4.676,4.676,0,0,1-1.869-7.883,13.727,13.727,0,0,0,1-1.032c1.4-1.711,1.434-2.9.038-4.607a4.409,4.409,0,0,1-1.212-3.087,3.523,3.523,0,0,1,4.068-3.217,3.484,3.484,0,0,1,2.971,4.013,4.36,4.36,0,0,1-1.046,2.1c-1.594,1.862-1.533,3.425.242,5.155a5.894,5.894,0,0,1,2.034,3.144,4.757,4.757,0,0,1-3.4,5.475c-.218.066-.5,0-.65.245ZM110,382.749a6.466,6.466,0,0,0-6.323.158c-1.56.823-2.374.417-2.664-1.251a3.388,3.388,0,0,0-6.726.8,3.331,3.331,0,0,0,4.2,2.866c1.767-.49,2.39.812,2.19,2.03a5.929,5.929,0,0,0,1.808,5.414,12.849,12.849,0,0,1,1.872,2.169,3.578,3.578,0,0,1,.375,3.613,8.566,8.566,0,0,1-1.443,1.991,3.708,3.708,0,0,0,.408,5.325,3.926,3.926,0,0,0,5.27-.118,3.825,3.825,0,0,0,.257-5.254,4.206,4.206,0,0,1-1.067-3.74,6.437,6.437,0,0,1,2.573-3.262,6.54,6.54,0,0,0,2.743-5.19A6.177,6.177,0,0,0,110,382.749Zm-7.161,13.665a4.046,4.046,0,1,0-4.056,3.9A3.883,3.883,0,0,0,102.842,396.414Zm17.863-7.051a3.124,3.124,0,1,0-3.15,3.025A3.086,3.086,0,0,0,120.7,389.363Z" transform="translate(-94.27 -354.866)"/></g><path class="g" d="M294.621,377.486c-.532,0-1.161-.206-1.569.1-.372.282-.056.9-.172,1.353,0,.018-.041.029-.072.05-.225.033-.3-.175-.427-.29a5.974,5.974,0,0,0-9.358,1.609,8.907,8.907,0,0,0-.464,6.858,5.6,5.6,0,0,0,4.454,4.119,5.787,5.787,0,0,0,5.887-1.99c0,.7.037,1.168-.007,1.633a3.228,3.228,0,0,1-2.681,3.141,7.25,7.25,0,0,1-4.256-.454c-.591-.237-.99-1.164-1.632-.8-.516.289-.752,1.058-1.113,1.614a.88.88,0,0,1-.089.132c-.419.44-.272.731.191,1.062a9.832,9.832,0,0,0,6.9,1.578,10.49,10.49,0,0,0,2.047-.411,5.708,5.708,0,0,0,4.389-5.677c.05-3.878.02-7.757.024-11.636C296.676,377.481,296.674,377.473,294.621,377.486Zm-2.931,10.1a3.692,3.692,0,0,1-5.611-3.974,3.306,3.306,0,0,1,2.45-3.02,3.951,3.951,0,0,1,2.3.026c1.648.509,2.084,1.089,2.084,2.767v.949a6.5,6.5,0,0,0,.011,1.184C293.124,386.582,292.514,387.149,291.69,387.59Zm19.386-9.209a7.593,7.593,0,0,0-9.75,1.143,7.709,7.709,0,0,0,.118,10.152c2.553,2.606,7.467,3,10.822.87.84-.533.841-.534.26-1.378-.271-.393-.568-.771-.814-1.178-.224-.372-.422-.465-.813-.17a5.889,5.889,0,0,1-2.926,1.023,4.094,4.094,0,0,1-4.356-2.437c-.169-.471-.173-.711.469-.694,1.531.039,3.064.013,4.6.012,1.586,0,3.171,0,4.757,0,.269,0,.632.112.644-.363C314.157,382.584,313.487,380.1,311.076,378.381Zm-1.281,4.792c-.963-.035-1.928-.009-2.892-.009s-1.928-.012-2.892.005c-.445.008-.637-.078-.5-.583a3.3,3.3,0,0,1,3.277-2.415,3.347,3.347,0,0,1,3.535,2.283C310.459,382.939,310.4,383.2,309.795,383.174Zm20.474,7.7c0,.58-.208.72-.749.693a21.917,21.917,0,0,0-2.339,0c-.589.034-.714-.2-.709-.729.025-2.429.007-4.858.013-7.287,0-1.136,0-2.326-1.257-2.85a3.752,3.752,0,0,0-3.741.5,2,2,0,0,0-.943,1.86c.065,2.586,0,5.174.038,7.761.008.607-.186.779-.779.745-.8-.046-1.613-.024-2.419-.007-.39.009-.587-.079-.585-.522q.019-6.534,0-13.068c0-.38.145-.508.522-.5.833.017,1.67.044,2.5-.008.622-.039.821.18.755.763a1.2,1.2,0,0,0,.122.861,7.146,7.146,0,0,1,5.416-1.946,3.967,3.967,0,0,1,4.128,4.149C330.281,384.489,330.241,387.684,330.269,390.878ZM354.93,378q-.018,6.529,0,13.059c0,.454-.219.516-.6.51-.833-.015-1.667-.031-2.5.005-.529.023-.731-.15-.684-.674a1.41,1.41,0,0,0-.125-.945,7.239,7.239,0,0,1-5.346,1.943c-2.6-.109-4.157-1.619-4.179-4.161-.028-3.192.007-6.385-.021-9.577-.005-.586.215-.713.75-.687a19.835,19.835,0,0,0,2.256,0c.6-.038.782.144.774.746-.034,2.453-.015,4.907-.014,7.36,0,1.782.447,2.574,1.635,2.91a4.3,4.3,0,0,0,4.138-1.361,1.368,1.368,0,0,0,.141-.841c0-2.664.026-5.329-.014-7.994-.01-.676.206-.867.864-.822.776.053,1.558.026,2.337.007C354.738,377.467,354.931,377.558,354.93,378Zm15.12,9.134a4,4,0,0,1-2.466,4.006,8.2,8.2,0,0,1-3.752.765,10.266,10.266,0,0,1-5.854-1.706c-.454-.31-.6-.6-.244-1.089.434-.6.659-1.51,1.232-1.807.6-.313,1.17.589,1.812.866a7.766,7.766,0,0,0,3.824.755,2.59,2.59,0,0,0,1.143-.347,1.166,1.166,0,0,0,.621-1.12c-.029-.458-.368-.686-.745-.853a10.332,10.332,0,0,0-2.174-.571,18.305,18.305,0,0,1-2.723-.7,3.782,3.782,0,0,1-2.828-3.645,3.891,3.891,0,0,1,2.5-3.834,8.961,8.961,0,0,1,8.738.889c.291.185.424.4.188.714a2.108,2.108,0,0,0-.117.208c-.346.6-.552,1.429-1.074,1.725-.592.336-1.1-.551-1.727-.774a6.189,6.189,0,0,0-3.536-.44,1.837,1.837,0,0,0-1.04.562.809.809,0,0,0,.247,1.378,7.329,7.329,0,0,0,2.163.6,17.766,17.766,0,0,1,3.028.808A3.9,3.9,0,0,1,370.05,387.132Zm-32.268-9.086q-.021,6.487,0,12.973c0,.41-.136.562-.558.551-.886-.022-1.774-.033-2.659,0-.527.022-.621-.2-.617-.656.018-2.136.008-4.271.008-6.407,0-2.11.018-4.219-.012-6.328-.008-.552.155-.743.724-.714.83.043,1.665.029,2.5,0C337.6,377.459,337.784,377.581,337.782,378.046Zm50.674,8.49a6.239,6.239,0,0,1-6.222,5.326c-.393.029-.755.042-1.107.042a8.668,8.668,0,0,1-3.542-.667,5.926,5.926,0,0,1-3.665-5.428c-.171-2.157-.145-4.369-.12-6.509.013-1.147.027-4.185.011-5.355,0-.333,0-.667,0-1,0-.44.006-.895-.007-1.348h.018c.249-.006.463-.012.647-.012a3.021,3.021,0,0,1,.44.022,8,8,0,0,1,.039,1.083v4.6q0,3.657,0,7.314a7.844,7.844,0,0,0,.4,2.638,5.345,5.345,0,0,0,4.085,3.637,8.093,8.093,0,0,0,1.8.2,8,8,0,0,0,1.452-.134c3.032-.562,4.785-2.759,4.809-6.026.031-4.138.028-9.674-.011-13.114a1.615,1.615,0,0,1,.01-.223,1.633,1.633,0,0,1,.166.012,7.942,7.942,0,0,0,.838.043l0,1.691c0,3.149.009,8.151.021,11.3v.093A10.569,10.569,0,0,1,388.457,386.536Zm-50.341-12.754A2.284,2.284,0,0,1,335.851,376a2.26,2.26,0,0,1-2.238-2.241,2.253,2.253,0,0,1,4.5.019Z" transform="translate(-217.089 -354.25)"/></g></svg>